<?xml version="1.0" encoding="UTF-8"?>
<!DOCTYPE svg PUBLIC "-//W3C//DTD SVG 1.1//EN" "http://www.w3.org/Graphics/SVG/1.1/DTD/svg11.dtd">
<!-- Creator: CorelDRAW X7 -->
<svg xmlns="http://www.w3.org/2000/svg" xml:space="preserve" width="50mm" height="49.1986mm" version="1.1" style="shape-rendering:geometricPrecision; text-rendering:geometricPrecision; image-rendering:optimizeQuality; fill-rule:evenodd; clip-rule:evenodd"
viewBox="0 0 6422 6319"
 xmlns:xlink="http://www.w3.org/1999/xlink">
 <defs>
  <style type="text/css">
   <![CDATA[
    .fil1 {fill:#FFE348}
    .fil0 {fill:#C82126}
   ]]>
  </style>
 </defs>
 <g id="图层_x0020_1">
  <metadata id="CorelCorpID_0Corel-Layer"/>
  <path class="fil0" d="M1223 5723c1414,344 -65,241 1519,480 498,75 169,189 711,53 391,-97 598,-8 902,-181l666 -310c342,-167 198,-306 522,-550 496,-372 169,-6 419,-575 164,-372 276,-214 371,-611 -142,-572 25,-365 79,-814 51,-431 -105,-321 -120,-697 -18,-454 187,-198 -139,-625 -195,-256 -233,-189 -256,-612 -1132,-622 -217,-541 -1078,-826 -236,-78 -52,30 -313,-130 -671,-410 -291,-103 -1054,-303 -301,-79 -1193,68 -1442,232 -165,108 50,41 -275,166 -932,360 -298,163 -759,577 -398,357 -263,-44 -472,520 -170,458 -204,298 -331,553 -187,376 50,143 -57,659 -92,443 -185,142 -42,679 103,383 15,474 65,681 85,348 178,127 332,527 204,529 -154,224 346,550 310,202 304,173 406,557z"/>
  <path class="fil1" d="M2222 1264c-260,-166 -497,-338 -772,-501 87,277 184,558 242,856 -388,-7 -639,-160 -956,-233 194,180 449,545 570,845l-1015 -65c291,275 574,384 826,648 -304,135 -589,164 -844,325l883 360c-210,106 -749,452 -869,599l1038 -75c-157,328 -366,630 -591,876 293,-88 543,-200 942,-250l-241 883c278,-192 506,-362 793,-517l11 958c221,-206 429,-525 612,-772 209,287 178,573 353,857 133,-222 186,-609 351,-856 207,236 384,552 611,769l17 -949c288,151 519,327 784,493l-267 -877 977 266c-231,-309 -398,-498 -583,-861l1041 68c-249,-249 -561,-401 -861,-671l890 -271 -775 -353c-13,-7 -40,-21 -58,-34 254,-220 611,-417 805,-614l-1040 38c248,-379 204,-401 594,-830 -341,70 -598,231 -974,245l251 -858 -778 500 -27 -950c-224,198 -399,531 -613,750l-313 -861c-115,156 -123,250 -191,452l-131 328c-9,17 -26,46 -33,60 -7,13 -22,41 -34,60 -165,-292 -426,-517 -582,-851l-43 1013z"/>
  <path class="fil0" d="M2783 2587l-1175 18c175,250 653,562 947,738l-374 1128c394,-180 644,-375 1023,-606 306,146 754,490 1047,695l-360 -1228c315,-200 691,-454 931,-720l-1168 -23c-127,-329 -289,-809 -457,-1133l-414 1131z"/>
 </g>
</svg>
